# xmcd
#
# Track frame offsets:
#	150
#	22711
#	46795
#	65072
#	83257
#	97482
#	116789
#	134698
#	149194
#	167822
#	184281
#	200203
#	218100
#	234620
#	253105
#	272252
#	290298
#	302793
#	319648
#	335186
#
# Disc length: 4795 seconds
#
# Revision: 1
# Processed by: cddbd v1.5.1PL0 Copyright (c) Steve Scherf et al.
# Submitted via: audiograbber 1.83.01
#
DISCID=3c12b914
DTITLE=Various Artist - Mastermix 90's Night (1993)
DYEAR=1993
DGENRE=Pop
TTITLE0=Beloved - Sweet Harmony
TTITLE1=Bon Jovi - In These Arms
TTITLE2=Dr Alban - Sing Hallelujah
TTITLE3=East 17 - Deep
TTITLE4=Faith No More - Easy
TTITLE5=4 Non Blondes - What's Up?
TTITLE6=Haddaway - What Is Love
TTITLE7=Jamiroquai - Too Young To Die
TTITLE8=Billy Joel - The River Of Dreams
TTITLE9=K D Lang - Constant Cravings
TTITLE10=Louchie Lou and Michie One - Shout
TTITLE11=Radiohead - Creep
TTITLE12=Shabba Ranks - Mr Loverman
TTITLE13=Snow - Informer
TTITLE14=Spin Doctors - Two Princes
TTITLE15=Stakka Bo - Here We Go
TTITLE16=Sub Sub Feat. Melanie Williams - Ain't No Love (Ain't No Use)
TTITLE17=Urban Cookie Collective - The Key, The Secret
TTITLE18=West End Feat. Sybil - The Love I Lost
TTITLE19=Meatloaf - I'd Do Anything For Love
EXTD=
EXTT0=
EXTT1=
EXTT2=
EXTT3=
EXTT4=
EXTT5=
EXTT6=
EXTT7=
EXTT8=
EXTT9=
EXTT10=
EXTT11=
EXTT12=
EXTT13=
EXTT14=
EXTT15=
EXTT16=
EXTT17=
EXTT18=
EXTT19=
PLAYORDER=
